<svg width="59" height="59" viewBox="0 0 59 59" fill="none" xmlns="http://www.w3.org/2000/svg">
<path d="M51.5605 51.019H7.83008V7.28857H51.5605V51.019ZM22.6498 41.8648L19.3263 43.9152C19.8443 45.052 20.6838 46.0123 21.7412 46.6775C22.89 47.3358 24.1952 47.6716 25.519 47.6493C26.2134 47.6445 26.9051 47.563 27.5816 47.4064C28.9971 47.0581 30.197 46.1232 30.8809 44.836C31.5623 43.2325 31.8135 41.479 31.6097 39.7487C31.6097 39.4183 31.6097 39.0806 31.6097 38.7405C31.6219 36.2454 31.6097 33.7066 31.6097 31.248C31.6097 29.9944 31.6097 28.7383 31.6097 27.4799V27.3778H27.5088C27.5088 29.1416 27.5088 30.9014 27.5088 32.6571C27.5088 34.4233 27.5088 36.1871 27.5088 37.9557C27.5088 38.4076 27.5088 38.8498 27.5088 39.2749C27.6307 40.4875 27.5428 41.7121 27.2488 42.8948C26.8959 43.5759 26.1696 43.9797 25.4048 43.9201C25.0623 43.9191 24.7217 43.8675 24.3942 43.767C23.7362 43.423 23.2058 42.8772 22.8806 42.2097L22.8005 42.0737C22.7251 41.9449 22.6741 41.855 22.6498 41.855V41.8648ZM37.1027 41.3789L33.7671 43.2908C34.0402 43.8884 34.4169 44.4329 34.8798 44.8992C34.9939 45.0255 35.1227 45.1615 35.2418 45.3122C36.8729 46.7709 39.0046 47.543 41.1915 47.4671C44.0216 47.746 46.6954 46.1209 47.7511 43.4803V43.4609C48.0276 42.4903 48.0717 41.4683 47.8798 40.4775L47.9624 40.5966C47.6029 38.3396 45.9679 36.7726 42.4913 35.3611C42.2216 35.2347 41.9422 35.1181 41.6701 34.9966C40.589 34.5302 39.5686 34.0929 39.2139 33.296C39.0559 32.8861 39.0271 32.4376 39.1313 32.0108C39.3829 31.156 40.2078 30.6016 41.0943 30.6916C41.365 30.6917 41.6342 30.7309 41.8936 30.8082C42.6931 31.0776 43.34 31.675 43.672 32.4506C45.5548 31.2188 45.5548 31.2188 46.8692 30.4001C46.5685 29.8868 46.2107 29.4093 45.8027 28.9764C44.5555 27.6395 42.7662 26.9453 40.9437 27.0912H40.6522L39.3694 27.2539C38.1647 27.5243 37.0748 28.1648 36.2524 29.0858C35.2857 30.2948 34.8503 31.844 35.0458 33.3796C35.2413 34.9152 36.051 36.306 37.2898 37.2342C38.3539 37.9624 39.5015 38.5603 40.7081 39.015C42.2653 39.6709 43.6088 40.2297 43.8809 41.2525C44.0456 41.8449 43.9243 42.4801 43.553 42.9702C42.8935 43.6214 41.9812 43.95 41.0579 43.8691C40.8037 43.8683 40.5497 43.8521 40.2975 43.8205C38.9236 43.5126 37.7539 42.6174 37.0979 41.3716L37.1027 41.3789Z" fill="#2E3A59"/>
</svg>
